<?xml version="1.0" standalone="no"?>
<!DOCTYPE svg PUBLIC "-//W3C//DTD SVG 20010904//EN"
 "http://www.w3.org/TR/2001/REC-SVG-20010904/DTD/svg10.dtd">
<svg version="1.0" xmlns="http://www.w3.org/2000/svg"
 width="12205.000000pt" height="3937.000000pt" viewBox="0 0 12205.000000 3937.000000"
 preserveAspectRatio="xMidYMid meet">

<g transform="translate(0.000000,3937.000000) scale(0.100000,-0.100000)"
fill="#000000" stroke="none">
<path d="M14360 38444 c-8 -3 -39 -12 -67 -21 -74 -24 -180 -99 -235 -168 -60
-74 -119 -186 -151 -290 -14 -44 -35 -107 -47 -140 -151 -435 -49 -1415 284
-2715 84 -331 100 -388 170 -630 107 -371 133 -450 151 -471 24 -25 76 -25
100 1 9 10 50 99 89 197 94 232 224 494 321 648 178 283 340 482 541 663 281
254 604 418 949 481 112 21 298 31 311 18 4 -4 -27 -42 -69 -85 -160 -162
-303 -385 -405 -632 -148 -356 -235 -737 -337 -1485 -89 -649 -180 -960 -334
-1151 -69 -85 -147 -135 -283 -179 -161 -53 -240 -97 -323 -180 -75 -75 -129
-164 -161 -270 -16 -50 -19 -93 -19 -260 0 -193 2 -204 33 -328 37 -145 83
-279 118 -349 37 -73 50 -74 279 -14 275 72 401 89 665 90 192 1 248 -2 307
-16 93 -23 128 -23 153 2 19 19 20 33 20 403 0 396 13 664 51 1022 21 201 24
226 65 480 224 1402 832 2712 1715 3700 207 231 524 532 681 644 25 18 52 47
59 63 10 25 9 33 -8 56 -27 37 -65 39 -187 8 -212 -54 -355 -78 -626 -107
-165 -17 -240 -20 -485 -16 -291 5 -409 13 -605 43 -495 75 -971 221 -1416
434 -213 102 -337 172 -529 300 -174 115 -306 184 -430 225 -65 22 -104 28
-205 31 -69 2 -132 1 -140 -2z"/>
<path d="M7780 38137 c-383 -130 -757 -484 -1054 -997 -93 -161 -90 -186 30
-233 172 -68 317 -212 427 -425 105 -204 167 -442 202 -775 8 -68 30 -97 74
-97 37 0 48 14 165 210 348 585 681 939 932 990 146 30 152 48 94 274 -76 298
-179 561 -292 744 -72 117 -220 267 -307 310 -85 42 -144 42 -271 -1z"/>
<path d="M91325 38059 c-335 -31 -747 -140 -1082 -284 -351 -152 -563 -348
-649 -600 -36 -106 -45 -294 -19 -409 20 -91 70 -194 125 -258 54 -62 170
-139 268 -177 353 -136 1005 -109 1500 60 503 174 860 449 987 762 61 149 72
359 26 497 -77 230 -289 367 -636 409 -102 12 -386 12 -520 0z"/>
<path d="M13040 37974 c-103 -20 -287 -101 -447 -197 -139 -84 -317 -210 -337
-239 -29 -41 -17 -387 20 -573 38 -188 78 -302 115 -329 38 -26 61 -19 143 39
248 178 507 299 700 325 132 19 139 27 180 200 85 365 72 580 -45 698 -58 59
-103 76 -209 78 -52 1 -106 0 -120 -2z"/>
<path d="M53676 37899 c-113 -27 -139 -72 -195 -355 -91 -450 -305 -828 -686
-1209 -295 -297 -614 -512 -909 -614 -48 -17 -156 -45 -240 -62 -83 -17 -169
-40 -191 -53 -69 -37 -69 -42 -70 -531 0 -498 -1 -494 78 -514 27 -6 127 -11
241 -11 l196 0 0 -4357 c0 -2760 4 -4424 10 -4537 32 -577 178 -984 473 -1325
43 -50 88 -93 100 -96 12 -3 616 -4 1342 -3 983 2 1327 6 1346 15 35 16 40 34
46 208 9 250 -19 470 -72 561 -34 58 -122 136 -210 184 -165 91 -249 175 -316
315 -75 158 -69 -263 -69 4634 l0 4400 303 3 302 3 51 28 c58 33 100 90 109
151 4 22 5 210 3 416 -3 365 -4 376 -25 417 -25 45 -59 76 -113 101 -29 13
-86 17 -332 20 l-298 4 0 987 c0 623 -4 1008 -10 1042 -16 84 -49 139 -99 166
-44 23 -47 23 -385 22 -188 -1 -359 -5 -380 -10z"/>
<path d="M87106 37899 c-113 -27 -140 -75 -195 -354 -88 -443 -306 -830 -681
-1206 -299 -300 -617 -515 -914 -618 -48 -17 -156 -45 -240 -62 -83 -17 -169
-40 -191 -53 -69 -37 -69 -42 -70 -531 0 -498 -1 -494 78 -514 27 -6 127 -11
241 -11 l196 0 0 -4362 c0 -2817 4 -4425 10 -4538 34 -574 179 -979 473 -1319
43 -50 88 -93 100 -96 35 -9 2660 0 2683 9 36 13 46 53 51 211 9 251 -20 470
-72 561 -34 58 -122 136 -210 184 -198 109 -302 232 -362 426 -17 57 -18 241
-20 4491 l-3 4432 302 3 c290 3 305 4 344 25 54 29 101 83 114 133 7 27 10
171 8 428 -3 378 -4 388 -25 429 -25 45 -59 76 -113 101 -29 13 -86 17 -332
20 l-297 4 -3 1021 c-3 949 -4 1025 -21 1067 -9 25 -29 58 -44 74 -50 54 -63
56 -430 55 -186 -1 -356 -5 -377 -10z"/>
<path d="M38720 37750 c-62 -21 -113 -71 -131 -129 -16 -51 -23 -449 -11 -616
16 -224 26 -237 272 -360 159 -80 202 -108 271 -178 86 -87 136 -214 159 -397
7 -57 10 -1732 10 -5200 0 -4645 -1 -5121 -16 -5171 -46 -157 -169 -259 -416
-345 -163 -57 -248 -121 -273 -208 -23 -77 -35 -246 -38 -531 -2 -298 0 -308
84 -355 l44 -25 2075 0 c1681 0 2083 2 2118 13 76 23 77 27 77 467 0 340 -2
386 -18 440 -29 95 -89 144 -359 295 -141 79 -259 227 -287 360 -9 41 -11
1335 -9 5220 3 4901 4 5168 21 5225 68 233 200 356 450 420 117 30 146 44 181
85 54 65 76 225 76 556 0 284 -21 379 -90 414 -21 11 -66 24 -101 30 -43 6
-729 10 -2049 10 -1920 -1 -1987 -1 -2040 -20z"/>
<path d="M117535 37756 c-91 -23 -151 -67 -183 -136 -15 -30 -17 -75 -17 -330
0 -257 2 -304 19 -363 35 -129 111 -218 257 -302 120 -69 176 -149 199 -285 8
-47 10 -1575 8 -5380 -3 -5052 -4 -5318 -21 -5367 -21 -63 -74 -112 -190 -179
-109 -63 -179 -131 -221 -215 -51 -101 -58 -166 -54 -500 3 -273 4 -297 24
-339 29 -63 81 -106 146 -119 38 -8 496 -11 1593 -9 l1540 3 57 22 c76 28 123
66 147 117 20 40 21 60 21 359 0 292 -2 320 -20 370 -24 65 -65 105 -148 146
-119 60 -175 133 -212 277 -20 76 -20 132 -20 6018 0 3575 -4 5976 -10 6029
-5 48 -17 104 -27 124 -36 72 60 68 -1468 70 -1067 1 -1381 -1 -1420 -11z"/>
<path d="M12025 37429 c-254 -109 -547 -148 -734 -100 -68 18 -89 20 -111 11
-50 -21 -53 -45 -24 -218 119 -725 266 -1143 428 -1221 63 -31 85 -18 166 99
79 114 221 260 312 318 36 24 101 58 144 75 105 44 115 61 90 154 -80 300
-118 542 -114 732 2 140 2 144 -21 162 -31 25 -53 23 -136 -12z"/>
<path d="M10803 37359 c-86 -16 -231 -73 -353 -136 -140 -72 -180 -104 -180
-143 0 -15 38 -105 84 -201 97 -202 138 -303 212 -524 79 -237 151 -532 184
-754 6 -40 15 -81 20 -91 29 -55 183 -96 291 -79 131 21 252 86 370 199 104
99 105 115 16 203 -104 103 -179 256 -238 486 -31 121 -73 353 -84 456 -3 33
-11 92 -16 130 -5 39 -13 141 -18 228 -9 177 -18 202 -82 224 -39 14 -144 15
-206 2z"/>
<path d="M10010 37039 c-835 -164 -1596 -629 -2135 -1304 -192 -240 -299 -413
-500 -809 -306 -604 -555 -1021 -829 -1386 -395 -526 -728 -757 -971 -671 -76
27 -96 26 -123 -2 -34 -36 -30 -100 24 -412 132 -759 378 -1433 699 -1915 115
-171 199 -275 335 -410 131 -131 225 -205 278 -220 20 -5 84 -21 142 -35 260
-65 501 -162 584 -236 l41 -37 -98 -97 c-119 -119 -198 -216 -290 -355 -69
-106 -175 -313 -218 -427 -15 -39 -30 -63 -39 -63 -8 0 -41 16 -73 35 -375
226 -757 767 -1054 1495 -169 414 -360 1035 -468 1520 -8 36 -24 106 -35 155
-23 101 -88 430 -120 605 -28 160 -37 188 -65 206 -54 35 -313 27 -520 -17
-354 -74 -764 -282 -1120 -565 -138 -110 -462 -432 -587 -584 -320 -389 -588
-807 -852 -1330 l-85 -169 3 -178 c9 -494 -53 -1104 -156 -1533 -121 -505
-319 -944 -547 -1215 -28 -33 -62 -80 -77 -104 l-27 -43 46 -197 c71 -303 99
-452 136 -731 43 -320 53 -461 61 -810 7 -340 8 -359 34 -455 45 -173 136
-333 231 -408 52 -41 136 -77 208 -89 87 -14 184 6 335 71 172 74 198 82 295
88 82 5 89 4 112 -17 31 -29 40 -75 26 -139 -9 -42 -8 -58 5 -91 33 -81 169
-175 275 -190 171 -24 318 55 496 268 445 531 1010 1022 1563 1359 476 290
906 456 1395 539 128 21 530 32 586 15 48 -15 210 -143 305 -242 91 -96 143
-166 191 -259 68 -134 125 -134 175 0 231 613 482 1088 766 1450 136 173 332
358 477 452 65 41 142 78 227 108 93 33 159 80 286 204 275 267 455 577 527
911 10 44 19 86 21 93 3 10 28 11 116 6 400 -23 815 125 1193 426 44 35 141
123 215 196 74 72 145 136 157 142 57 30 205 84 315 116 555 157 1122 128
1653 -85 133 -53 182 -60 209 -30 9 10 37 71 61 136 96 251 238 509 380 688
85 107 265 283 312 307 15 8 47 25 70 39 l43 26 0 80 c-2 241 -45 635 -96 865
-62 283 -129 481 -252 745 -165 358 -324 861 -441 1400 -12 55 -26 118 -31
140 -16 75 -48 240 -70 360 -12 66 -27 154 -35 195 -8 41 -17 98 -20 125 -4
28 -11 73 -16 100 -10 56 -33 223 -54 392 -8 61 -16 127 -20 145 -15 87 -70
664 -96 1018 -24 322 -22 310 -48 331 -32 26 -56 24 -152 -15 -412 -167 -800
-381 -1094 -605 -201 -153 -411 -394 -446 -512 -12 -38 -10 -46 29 -143 239
-588 443 -1270 557 -1856 82 -426 112 -728 95 -959 -18 -232 -63 -388 -145
-500 -50 -68 -66 -75 -210 -91 -49 -6 -117 -15 -150 -20 -80 -13 -372 -46
-566 -65 -163 -16 -494 -21 -502 -7 -3 4 4 41 15 82 80 308 128 749 128 1182
0 217 -22 652 -40 783 -5 39 -12 99 -15 135 -12 121 -56 418 -91 610 -117 645
-291 1282 -546 2000 -90 253 -99 272 -130 294 -28 20 -57 19 -178 -5z m-705
-2981 c27 -125 48 -499 42 -769 -16 -705 -173 -1351 -466 -1914 -96 -186 -114
-211 -150 -218 -178 -36 -429 1 -601 87 -80 40 -140 84 -210 155 -105 106
-193 256 -244 420 -32 101 -73 305 -78 385 l-3 59 92 37 c319 131 599 384 795
720 60 101 145 277 183 375 97 253 183 408 290 523 100 108 195 161 292 162
47 0 53 -3 58 -22z m-4791 -4725 c23 -223 83 -559 136 -754 109 -399 277 -720
461 -880 33 -28 58 -55 57 -59 -2 -4 -77 -63 -168 -130 -616 -460 -1081 -908
-1281 -1235 -29 -47 -62 -91 -72 -97 -41 -21 -212 -48 -312 -48 -362 0 -593
196 -669 571 -8 41 -20 135 -27 209 -10 115 -9 163 5 325 16 182 51 415 80
538 32 138 348 605 614 908 293 334 602 566 887 664 82 28 195 52 251 54 l32
1 6 -67z"/>
<path d="M6488 36733 c-8 -10 -32 -61 -53 -113 -21 -52 -78 -174 -126 -271
-211 -417 -435 -684 -656 -780 -29 -13 -83 -24 -138 -28 -158 -13 -166 -28
-141 -240 73 -617 334 -1052 752 -1259 157 -78 178 -78 303 -1 243 150 509
494 686 888 119 264 171 431 147 467 -15 23 -52 34 -91 28 -57 -9 -86 1 -137
48 -125 115 -245 398 -344 813 -34 140 -80 369 -80 394 0 10 -9 30 -21 45 -25
31 -78 36 -101 9z"/>
<path d="M18475 35926 c-57 -25 -246 -252 -392 -471 -481 -722 -755 -1610
-794 -2575 -8 -216 3 -808 16 -829 2 -4 8 -60 15 -126 11 -115 51 -406 68
-490 12 -58 29 -84 59 -91 15 -4 76 0 137 9 l110 17 36 -23 c90 -60 177 -73
620 -92 498 -22 875 -59 1120 -110 102 -21 131 -31 233 -77 84 -38 88 -39 119
-24 17 9 46 16 65 16 21 0 33 5 33 14 0 36 -36 213 -85 416 -102 421 -186 977
-229 1515 -41 506 -25 790 59 1042 53 158 111 266 260 478 68 98 135 216 150
264 6 19 -1 31 -35 66 -39 40 -41 45 -27 59 80 81 -12 174 -408 416 -134 82
-543 320 -550 320 -2 0 -27 13 -54 30 -62 36 -360 200 -416 228 -59 30 -77 33
-110 18z"/>
<path d="M48567 35800 c-604 -46 -1151 -324 -1654 -843 -77 -80 -187 -204
-244 -274 -56 -70 -106 -129 -111 -131 -4 -2 -8 221 -8 495 -1 573 -2 579 -75
617 -40 21 -45 21 -1419 24 -1539 3 -1456 6 -1514 -64 -52 -63 -57 -101 -57
-414 0 -199 4 -297 12 -326 21 -69 64 -115 154 -169 150 -88 224 -188 249
-333 8 -49 10 -1249 7 -4347 -3 -3967 -5 -4287 -20 -4375 -10 -52 -29 -120
-44 -150 -27 -56 -128 -164 -252 -269 -119 -101 -135 -173 -129 -559 7 -351
21 -398 131 -433 55 -17 2995 -26 3122 -9 151 20 247 87 276 193 7 26 9 146 7
341 -4 284 -5 304 -26 357 -33 84 -70 129 -152 184 -131 89 -205 180 -247 305
-17 53 -18 198 -21 4025 l-2 3969 42 38 c170 152 384 277 533 313 82 20 232
22 308 5 170 -41 282 -160 339 -365 l23 -80 5 -4185 c5 -3885 7 -4191 22
-4275 59 -314 181 -553 388 -762 l71 -73 1137 0 c745 0 1159 4 1202 11 177 28
205 97 205 499 0 376 -35 495 -184 629 -94 84 -134 138 -165 219 l-21 57 -6
4210 c-5 4562 -2 4258 -55 4520 -94 466 -345 896 -659 1130 -299 224 -715 329
-1168 295z"/>
<path d="M59328 35800 c-999 -65 -1783 -583 -2415 -1595 -492 -788 -798 -1933
-893 -3335 -33 -492 -38 -1336 -10 -1775 56 -902 180 -1613 389 -2245 253
-761 584 -1313 1092 -1821 532 -531 1125 -825 1814 -899 149 -16 491 -13 652
5 615 70 1102 303 1534 735 653 651 1029 1574 1029 2525 0 334 -57 476 -212
523 -235 73 -823 61 -980 -19 -45 -23 -63 -48 -82 -115 -30 -102 -37 -179 -56
-594 -6 -118 -17 -271 -26 -340 -38 -313 -124 -623 -234 -846 -239 -489 -586
-743 -1040 -761 -169 -6 -249 9 -377 72 -256 126 -454 433 -532 825 -46 233
-45 175 -48 2128 l-4 1862 1796 0 1795 0 0 528 c0 874 -33 1368 -130 1937
-160 943 -459 1676 -919 2248 -553 687 -1281 1013 -2143 957z m334 -1079 c144
-50 251 -171 302 -341 51 -167 49 -96 53 -1707 l4 -1503 -546 0 -545 0 0 1440
c0 930 4 1475 10 1538 37 339 171 535 403 588 85 19 244 12 319 -15z"/>
<path d="M67477 35800 c-149 -18 -306 -85 -445 -190 -137 -103 -205 -191 -316
-410 -126 -248 -226 -528 -380 -1065 -120 -417 -207 -675 -228 -675 -4 0 -9
449 -11 998 -3 868 -5 1004 -19 1054 -21 78 -54 124 -108 151 l-45 22 -1140 3
c-754 2 -1164 -1 -1210 -8 -87 -13 -173 -55 -197 -95 -44 -76 -53 -146 -52
-410 1 -308 8 -353 67 -413 23 -24 85 -72 137 -106 146 -97 201 -166 238 -299
16 -58 17 -318 17 -4377 l0 -4315 -22 -70 c-38 -120 -113 -211 -230 -277 -61
-34 -97 -74 -127 -138 -19 -42 -21 -65 -24 -378 -4 -370 1 -405 59 -475 39
-48 89 -73 170 -87 96 -16 3221 -9 3270 8 42 14 71 44 89 92 18 48 26 584 11
678 -25 148 -115 267 -268 355 -103 59 -182 135 -222 215 -66 131 -62 -167
-58 3724 l3 3533 21 110 c56 283 147 413 304 432 121 14 195 -54 323 -305 187
-364 359 -497 641 -495 418 3 686 328 775 942 45 312 51 762 15 1041 -58 441
-214 831 -412 1025 -60 60 -141 116 -208 146 -112 50 -288 74 -418 59z"/>
<path d="M74150 35800 c-707 -54 -1336 -428 -1909 -1134 l-96 -119 -5 509 c-5
483 -6 511 -25 549 -13 27 -33 47 -60 60 -39 20 -63 20 -1418 23 -937 2 -1391
-1 -1417 -8 -50 -13 -95 -51 -123 -104 -21 -40 -22 -50 -22 -361 0 -281 2
-324 17 -356 28 -59 66 -97 142 -141 104 -61 170 -128 214 -217 l37 -75 3
-4285 c2 -3150 0 -4316 -8 -4400 -7 -63 -21 -143 -31 -178 -24 -78 -92 -169
-179 -241 -127 -104 -167 -147 -191 -209 -23 -55 -24 -71 -27 -347 -5 -414 9
-471 118 -511 54 -20 80 -20 1595 -20 1633 0 1593 -1 1685 45 46 24 95 76 117
125 15 34 18 76 21 282 4 278 -6 390 -43 472 -32 69 -68 107 -166 176 -123 86
-189 179 -224 311 -13 51 -15 521 -15 4016 l0 3957 78 67 c238 204 447 297
662 296 302 -2 460 -163 500 -512 6 -54 10 -1575 10 -4174 0 -3631 2 -4100 15
-4192 48 -324 166 -567 389 -801 l69 -73 1141 0 c679 0 1165 4 1199 10 113 18
165 62 186 158 22 99 34 358 22 502 -20 243 -65 369 -161 449 -132 110 -191
205 -210 336 -6 46 -10 1496 -10 4191 0 2774 -3 4156 -10 4225 -36 356 -130
660 -283 922 -263 445 -623 691 -1117 761 -137 19 -338 26 -470 16z"/>
<path d="M80305 35799 c-953 -39 -1731 -333 -2281 -862 -369 -354 -577 -764
-645 -1267 -17 -121 -17 -470 0 -575 75 -482 306 -747 727 -832 121 -24 457
-24 629 1 333 47 651 158 865 301 285 189 359 386 380 1007 10 309 24 432 65
571 80 277 225 431 465 493 91 24 275 24 355 0 171 -51 270 -161 328 -365 21
-75 22 -88 25 -996 l3 -920 -78 -39 c-315 -157 -819 -380 -1345 -597 -670
-275 -1048 -465 -1418 -712 -764 -509 -1049 -970 -1204 -1949 -76 -475 -109
-1129 -88 -1731 22 -628 74 -1067 177 -1482 131 -530 317 -902 599 -1193 302
-313 651 -481 1105 -533 130 -14 445 -7 556 14 543 102 906 334 1517 967 98
101 179 182 181 179 2 -2 16 -40 31 -84 77 -222 213 -469 341 -618 185 -215
440 -350 797 -421 196 -39 334 -49 607 -43 422 9 676 61 959 199 196 95 251
162 287 354 21 109 29 289 16 371 -21 135 -43 169 -226 348 l-165 160 -3 3965
-3 3965 -21 125 c-78 457 -250 831 -548 1195 -201 245 -451 446 -746 599 -356
185 -869 326 -1390 380 -144 16 -544 37 -629 34 -25 0 -126 -4 -225 -9z m912
-6841 l-3 -2313 -22 -113 c-67 -349 -195 -539 -412 -613 -90 -30 -257 -31
-347 -2 -166 54 -290 195 -352 397 -45 147 -80 407 -103 776 -17 272 -17 1642
0 1975 32 619 83 1033 153 1245 99 301 360 569 793 815 120 68 273 145 288
145 5 0 7 -1041 5 -2312z"/>
<path d="M96988 35799 c-708 -42 -1308 -318 -1828 -838 -741 -743 -1190 -1828
-1379 -3332 -135 -1068 -133 -2463 5 -3539 125 -984 381 -1747 812 -2430 317
-502 737 -933 1141 -1171 427 -253 859 -369 1377 -369 331 -1 563 34 849 127
653 212 1209 669 1690 1388 501 749 814 1728 954 2985 50 446 70 797 78 1360
15 1156 -82 2061 -309 2888 -156 573 -403 1111 -699 1527 -365 515 -790 893
-1264 1125 -351 173 -662 254 -1070 280 -173 11 -169 11 -357 -1z m293 -1059
c198 -37 345 -200 414 -462 64 -240 59 65 63 -4083 3 -3841 2 -3979 -34 -4219
-71 -477 -252 -722 -554 -752 -36 -3 -92 -1 -124 5 -290 54 -441 352 -486 956
-14 190 -14 7386 0 7575 25 342 89 593 190 747 49 74 142 163 202 191 98 48
217 63 329 42z"/>
<path d="M106610 35803 c-757 -41 -1417 -439 -2032 -1223 l-27 -35 -1 430 c-1
596 -9 657 -88 693 -34 16 -150 17 -1437 17 l-1400 0 -40 -21 c-25 -13 -51
-39 -70 -69 l-30 -48 0 -331 c0 -304 2 -334 19 -366 29 -54 75 -98 146 -138
126 -70 212 -181 239 -310 15 -72 16 -8451 1 -8627 -13 -142 -31 -220 -66
-286 -26 -47 -136 -159 -243 -248 -63 -52 -105 -132 -120 -231 -14 -84 -14
-438 -1 -555 19 -161 52 -196 199 -216 49 -6 607 -9 1576 -7 l1500 3 69 23
c51 18 80 35 115 70 71 71 73 86 69 448 -3 290 -5 312 -26 364 -29 74 -70 122
-156 179 -128 87 -202 182 -240 310 -15 50 -16 403 -16 4022 l0 3967 60 54
c246 224 512 334 743 308 217 -25 338 -131 409 -361 l23 -74 6 -4190 c5 -3738
7 -4199 21 -4275 58 -317 172 -548 371 -756 l90 -95 1181 3 c1270 3 1210 1
1283 54 59 44 83 178 83 464 0 346 -52 518 -184 619 -86 64 -143 143 -177 246
-12 33 -15 751 -19 4260 l-5 4220 -22 131 c-72 434 -203 747 -436 1036 -214
267 -506 439 -861 507 -95 19 -365 43 -426 39 -14 -1 -50 -3 -80 -5z"/>
<path d="M112710 35800 c-632 -27 -1157 -156 -1635 -403 -766 -397 -1219
-1023 -1296 -1792 -16 -164 -6 -458 20 -589 112 -550 450 -795 1066 -773 372
14 695 90 981 231 429 212 519 402 544 1140 9 297 23 410 67 551 80 257 236
417 459 471 97 24 279 23 362 -1 131 -38 234 -132 287 -264 60 -147 58 -115
62 -1106 l4 -910 -218 -104 c-309 -148 -667 -307 -1038 -460 -560 -233 -675
-283 -915 -402 -288 -142 -454 -236 -675 -384 -444 -296 -743 -603 -910 -935
-187 -372 -304 -899 -362 -1620 -22 -271 -25 -1210 -5 -1475 55 -745 163
-1265 349 -1694 86 -198 181 -357 305 -508 304 -373 687 -585 1173 -649 181
-24 487 -15 655 21 498 104 824 314 1407 903 147 149 234 230 237 221 137
-401 329 -701 555 -868 161 -118 397 -209 671 -258 119 -21 188 -26 386 -30
373 -8 646 24 897 108 276 91 429 195 476 322 33 92 51 218 51 367 0 231 -29
293 -217 461 -65 58 -131 125 -148 149 l-30 43 -5 3981 -5 3981 -22 115 c-52
266 -128 487 -244 709 -259 495 -666 881 -1166 1105 -444 200 -997 317 -1628
346 -235 11 -230 11 -495 0z m917 -6817 c-3 -2469 -1 -2346 -58 -2573 -69
-275 -201 -438 -399 -494 -173 -48 -348 -19 -480 80 -68 51 -146 160 -180 251
-52 139 -89 355 -116 688 -22 266 -31 1505 -15 1950 33 881 94 1326 219 1570
104 205 314 411 607 595 108 68 392 220 413 220 10 0 12 -439 9 -2287z"/>
<path d="M89610 35683 c-112 -19 -189 -78 -214 -164 -23 -75 -23 -691 -1 -765
19 -65 63 -106 148 -138 166 -62 258 -175 304 -371 17 -77 18 -233 18 -4375
l0 -4295 -33 -67 c-40 -82 -85 -121 -204 -178 -124 -59 -167 -119 -205 -287
-14 -63 -17 -124 -16 -313 1 -352 18 -436 101 -476 35 -18 101 -19 1617 -22
987 -1 1604 1 1643 7 85 13 133 39 155 83 27 55 39 183 41 443 1 205 -2 249
-17 304 -45 157 -113 241 -256 315 -111 57 -147 87 -163 134 -10 30 -14 1027
-18 5017 l-5 4980 -24 48 c-29 59 -85 102 -152 116 -48 11 -2658 14 -2719 4z"/>
<path d="M20487 34592 c-25 -27 -21 -64 14 -145 113 -264 220 -618 288 -952
46 -225 68 -383 102 -730 15 -146 15 -847 0 -1005 -31 -346 -59 -554 -101
-760 -32 -155 -30 -156 210 -210 193 -43 208 -49 215 -82 9 -37 66 -65 260
-128 360 -116 447 -155 636 -282 147 -99 203 -119 252 -91 42 25 71 89 97 213
59 286 111 457 226 742 117 289 293 709 404 963 126 290 145 342 137 386 -4
20 -23 62 -42 94 -25 40 -32 62 -25 69 21 21 11 81 -22 133 -139 219 -503 529
-1053 898 -99 66 -220 145 -268 175 -48 30 -111 70 -139 88 -181 117 -623 375
-983 575 -130 72 -177 83 -208 49z"/>
<path d="M23442 32364 c-29 -20 -29 -70 2 -177 47 -160 79 -339 106 -587 12
-108 12 -607 0 -725 -40 -404 -89 -679 -172 -979 -25 -91 -28 -112 -18 -136 7
-16 19 -32 28 -35 10 -4 96 -6 193 -6 268 3 452 -38 695 -153 432 -207 886
-634 1237 -1166 121 -183 126 -190 150 -201 36 -16 74 4 105 57 15 25 35 59
45 76 l18 31 25 -37 c14 -20 30 -36 37 -36 31 0 156 161 178 229 15 48 86 134
259 316 78 83 171 186 207 230 66 81 123 183 123 220 0 27 -79 164 -137 240
-177 228 -722 789 -1073 1104 -58 52 -199 183 -315 291 -431 403 -823 759
-1325 1201 -317 279 -317 279 -368 243z"/>
<path d="M17705 30380 c-27 -4 -81 -11 -119 -15 -58 -6 -74 -12 -98 -35 -15
-16 -28 -37 -28 -48 0 -11 18 -69 39 -129 187 -513 402 -1216 496 -1623 86
-369 130 -603 167 -885 13 -103 17 -562 5 -645 -12 -82 -12 -82 -92 -64 -204
44 -547 68 -651 46 -27 -6 -50 -9 -52 -7 -2 1 4 90 12 196 8 107 18 250 21
319 17 348 36 514 66 569 23 43 25 118 4 148 -15 21 -17 21 -63 8 -26 -8 -48
-15 -48 -15 -1 0 -5 57 -9 127 -8 145 -15 169 -49 184 -40 19 -71 4 -101 -48
-120 -208 -392 -359 -812 -453 -129 -28 -167 -35 -363 -60 -151 -19 -441 -29
-670 -24 -252 7 -440 -7 -665 -47 -113 -20 -307 -69 -373 -93 -142 -54 -190
-75 -292 -127 -63 -33 -158 -90 -210 -127 -120 -84 -286 -250 -368 -366 -70
-100 -167 -291 -206 -409 -56 -165 -104 -449 -107 -635 l-1 -67 -18 105 c-62
363 -77 1296 -35 2120 17 337 19 557 5 615 -10 46 -52 88 -181 181 -116 84
-162 109 -271 146 -91 32 -96 32 -273 32 -156 1 -191 -2 -264 -22 -280 -77
-550 -231 -846 -487 -378 -325 -757 -464 -1015 -371 -140 50 -145 51 -174 33
-49 -33 -38 -69 78 -261 890 -1473 1817 -3255 2388 -4591 725 -1697 1066
-3000 1010 -3858 -15 -224 -10 -237 80 -237 59 0 248 57 403 121 279 117 499
254 787 491 119 99 158 152 247 338 70 146 116 291 146 460 37 208 149 633
210 800 10 25 70 204 136 397 140 418 206 587 294 758 36 70 65 136 65 146 0
25 33 91 75 149 39 54 75 123 75 145 0 67 223 389 461 666 336 390 583 543
845 526 137 -10 246 -59 369 -168 68 -61 131 -89 390 -177 405 -138 737 -216
1075 -253 348 -39 632 4 811 124 l56 37 74 -10 c130 -19 279 -75 376 -141 26
-18 93 -76 148 -127 310 -292 782 -622 1179 -826 327 -168 573 -254 876 -307
107 -18 152 -20 310 -17 127 4 207 10 255 22 207 51 319 102 391 178 28 30 74
72 101 96 131 109 256 335 368 666 58 172 82 296 90 471 8 182 27 291 69 407
18 51 57 174 85 273 81 277 117 390 207 648 46 131 96 282 110 335 55 203 434
1019 609 1312 172 289 235 486 189 596 -69 166 -257 394 -438 532 -55 41 -153
121 -219 176 -161 136 -218 179 -269 204 -453 221 -645 285 -931 311 -193 18
-295 16 -326 -7 -32 -23 -34 -35 -61 -247 -12 -93 -28 -214 -36 -267 -68 -463
-109 -712 -175 -1058 -39 -204 -81 -397 -146 -660 -65 -264 -171 -593 -238
-737 l-47 -102 -117 58 c-154 77 -281 127 -362 142 l-66 13 13 51 c32 120 53
269 179 1260 105 836 125 1270 79 1760 -24 259 -32 274 -163 330 -35 14 -94
50 -130 80 -216 173 -473 299 -744 365 -111 26 -312 53 -347 45 -63 -14 -60 5
-65 -521 -4 -442 -8 -568 -35 -1094 -11 -213 -35 -516 -50 -640 -6 -47 -15
-119 -20 -160 -53 -440 -139 -789 -242 -982 -39 -73 -117 -148 -154 -148 -14
0 -52 16 -83 34 -118 72 -253 116 -357 116 l-61 0 -7 98 c-3 53 -9 203 -13
332 -10 410 27 683 167 1225 112 432 170 782 170 1025 0 125 -66 633 -96 740
-21 75 -56 116 -118 138 -43 15 -51 22 -63 58 -27 81 -39 86 -358 149 -366 72
-758 129 -1075 156 -164 14 -725 21 -795 9z m-2366 -4627 c23 -6 23 -8 18
-102 -24 -449 -150 -1029 -312 -1436 -39 -99 -154 -327 -205 -410 -161 -258
-379 -471 -599 -585 l-64 -33 -28 34 c-15 19 -49 70 -75 114 -26 44 -85 142
-132 219 -47 76 -109 193 -138 260 -28 66 -89 202 -134 301 -148 326 -218 500
-294 737 -84 258 -94 298 -131 508 -35 201 -37 201 40 0 243 -636 451 -1069
567 -1176 67 -63 122 -72 158 -26 21 25 22 34 16 141 l-5 114 30 -29 31 -29
17 22 c14 17 19 48 24 145 15 309 185 774 348 952 92 101 287 215 430 252 105
27 376 44 438 27z"/>
<path d="M1761 29763 c-102 -109 -258 -295 -364 -437 -331 -444 -522 -820
-603 -1186 -22 -96 -26 -142 -27 -275 0 -144 2 -170 27 -260 33 -122 83 -225
157 -326 83 -112 114 -128 182 -92 192 99 373 468 531 1088 81 316 170 758
175 865 1 23 11 387 15 553 3 105 1 147 -8 147 -6 0 -44 -35 -85 -77z"/>
<path d="M26926 28499 c-15 -12 -72 -77 -127 -145 -476 -591 -1022 -1487
-1382 -2269 -30 -66 -72 -156 -92 -200 -55 -119 -204 -478 -273 -660 -207
-541 -349 -997 -486 -1550 -125 -508 -127 -530 -66 -555 41 -17 68 2 110 77
58 104 217 336 306 448 109 135 317 345 444 447 299 240 634 386 960 420 707
72 1447 -325 2221 -1192 418 -469 910 -1182 1294 -1875 620 -1121 1241 -2523
1700 -3840 119 -342 304 -912 375 -1155 12 -41 28 -95 35 -120 90 -295 272
-986 355 -1345 11 -49 25 -108 30 -130 13 -55 39 -171 50 -225 5 -25 21 -99
35 -165 30 -142 49 -232 76 -375 73 -388 88 -473 143 -835 14 -93 33 -213 41
-265 8 -52 19 -135 25 -185 6 -49 15 -121 20 -160 13 -95 45 -383 65 -590 16
-157 19 -172 42 -192 28 -27 50 -29 80 -8 26 18 35 49 63 210 130 753 196
1860 161 2705 -21 502 -48 949 -66 1095 -4 28 -13 113 -20 190 -27 277 -94
796 -125 975 -6 30 -19 114 -31 185 -11 72 -26 164 -34 205 -8 41 -23 127 -35
190 -42 230 -116 580 -187 885 -30 130 -123 494 -163 640 -33 118 -239 701
-310 875 -10 25 -76 189 -146 365 -69 176 -178 444 -242 595 -63 151 -135 327
-159 390 -24 63 -61 150 -83 192 -22 43 -74 153 -114 245 -234 534 -697 1492
-934 1934 -185 346 -276 513 -340 629 -821 1478 -1695 2717 -2519 3571 -195
202 -425 424 -571 552 -49 43 -86 48 -126 16z"/>
<path d="M9683 27788 c-11 -13 -24 -34 -28 -48 -18 -61 -90 -186 -159 -277
-128 -168 -195 -235 -334 -326 -70 -47 -167 -121 -217 -165 -362 -324 -737
-940 -1032 -1692 -49 -126 -93 -256 -93 -275 0 -7 25 -63 56 -126 129 -263
204 -504 255 -819 16 -103 22 -197 26 -395 5 -238 1 -325 -24 -543 -4 -36 -1
-62 8 -78 7 -15 69 -58 148 -106 327 -195 548 -363 766 -582 229 -230 357
-424 404 -611 19 -79 19 -82 1 -205 -50 -346 -169 -609 -337 -745 -72 -59 -62
-65 -214 123 -28 35 -92 94 -146 133 -52 39 -102 84 -111 101 -31 57 -116 165
-249 314 -72 82 -159 184 -193 227 -89 111 -122 124 -181 70 l-26 -24 -62 81
c-64 82 -85 100 -119 100 -36 0 -60 -42 -87 -155 -63 -257 -188 -489 -424
-785 -94 -119 -438 -465 -591 -595 -302 -256 -677 -525 -1024 -736 -107 -64
-160 -104 -225 -169 -141 -140 -228 -284 -271 -448 -28 -105 -27 -286 0 -401
25 -105 88 -240 125 -269 34 -27 57 -27 114 -2 110 50 210 15 346 -123 109
-111 182 -219 276 -409 200 -405 291 -567 461 -822 313 -467 745 -900 1118
-1120 122 -72 153 -86 184 -86 24 0 32 5 165 107 197 150 482 243 747 243 96
0 274 -24 354 -48 85 -25 248 -21 324 8 99 38 176 89 269 179 103 99 172 192
284 381 120 202 140 241 286 550 416 883 732 1464 936 1723 106 136 315 255
548 312 133 33 152 35 300 34 166 0 158 1 398 -68 39 -11 94 -20 123 -20 171
-2 579 106 645 170 23 24 27 35 27 87 0 57 1 60 30 72 63 26 89 130 97 390 6
206 -5 368 -42 617 -72 477 -215 975 -395 1373 -43 96 -116 266 -149 345 -5
11 -36 58 -71 103 -93 124 -155 157 -212 113 l-25 -20 -84 85 c-96 97 -133
112 -174 74 -16 -15 -26 -38 -30 -69 -41 -320 -154 -514 -329 -566 -71 -21
-98 -19 -143 14 -53 39 -160 182 -207 279 -46 92 -79 129 -169 188 -56 36 -71
52 -91 96 -40 90 -253 327 -742 828 -270 277 -307 327 -339 461 -23 95 -29
290 -16 505 18 300 41 372 281 859 171 347 235 458 298 525 126 131 178 334
124 484 -12 32 -48 104 -81 160 -33 55 -67 126 -76 157 -19 70 -142 276 -335
563 -147 219 -349 498 -371 512 -7 4 -22 7 -35 8 -15 1 -41 25 -85 81 -34 44
-71 88 -83 97 -29 24 -69 22 -93 -4z m-1693 -8439 c170 -171 403 -278 652
-297 l93 -7 3 -215 c6 -426 -47 -827 -124 -945 l-18 -28 -155 6 c-179 6 -278
29 -376 88 -74 44 -106 85 -195 244 -125 226 -238 384 -394 555 -73 79 -146
175 -146 192 0 5 31 41 68 80 112 120 201 227 290 348 47 63 98 129 115 147
l30 32 41 -62 c22 -34 75 -96 116 -138z"/>
<path d="M4180 24647 c-199 -60 -440 -245 -670 -516 -116 -137 -170 -215 -170
-247 0 -33 122 -268 201 -390 218 -331 502 -573 824 -699 141 -56 330 -95 455
-95 62 0 74 3 95 25 43 42 34 67 -63 168 -251 264 -379 608 -413 1107 -10 152
-8 292 7 527 6 89 6 92 -19 117 -23 23 -34 26 -99 25 -45 0 -102 -9 -148 -22z"/>
<path d="M16901 23825 c-439 -252 -983 -1233 -1452 -2624 -43 -129 -79 -245
-79 -258 0 -16 40 -67 134 -166 236 -252 372 -416 488 -592 69 -103 81 -115
120 -115 43 0 61 26 108 159 37 107 48 126 75 142 33 20 36 25 78 119 13 30
47 95 76 145 56 97 80 156 117 282 48 167 257 614 380 815 103 168 155 261
216 383 78 155 174 295 288 420 51 55 101 118 112 139 35 69 22 244 -32 428
-56 187 -179 457 -250 546 -41 53 -130 106 -164 100 -17 -4 -29 4 -47 30 -27
40 -74 72 -104 72 -11 0 -40 -11 -64 -25z"/>
<path d="M26394 22861 c-69 -11 -176 -47 -249 -84 -210 -105 -405 -315 -530
-572 -129 -263 -248 -843 -341 -1660 -53 -467 -109 -1139 -135 -1615 -10 -184
-10 -185 -37 -208 -127 -107 -409 -182 -636 -169 -55 3 -109 9 -118 12 -44 17
-104 374 -138 825 -16 216 -20 360 -20 775 0 626 17 988 86 1830 6 73 4 82
-15 103 -13 13 -34 22 -50 22 -34 0 -53 -21 -190 -198 -167 -218 -410 -455
-578 -565 -273 -178 -516 -211 -743 -100 -84 40 -107 58 -197 149 -83 84 -108
104 -131 104 -51 0 -63 -26 -83 -181 -59 -453 -60 -1154 -4 -1644 46 -397 114
-758 202 -1075 61 -219 63 -241 23 -324 -59 -124 -191 -239 -357 -311 -81 -35
-259 -90 -328 -100 l-40 -7 -54 72 c-421 555 -646 1506 -646 2735 0 253 17
667 32 787 5 41 2 50 -20 72 -49 49 -58 43 -211 -128 -121 -136 -269 -231
-432 -278 -118 -33 -320 -31 -461 5 -288 74 -614 262 -881 509 -78 72 -109 87
-147 70 -47 -22 -47 -27 46 -482 29 -145 37 -180 104 -490 502 -2317 1259
-4566 2074 -6167 l131 -256 -1 -231 c0 -373 -27 -734 -89 -1211 -21 -160 -25
-186 -70 -455 -209 -1248 -616 -2629 -1232 -4180 -203 -512 -483 -1158 -711
-1645 -46 -99 -101 -216 -122 -260 -89 -190 -414 -840 -535 -1070 -158 -299
-189 -355 -199 -355 -4 0 -45 25 -91 56 -368 246 -758 272 -1092 74 -98 -59
-138 -100 -138 -142 0 -42 11 -56 81 -101 67 -44 212 -189 312 -314 273 -337
753 -1101 1159 -1843 19 -36 48 -87 63 -115 26 -48 193 -357 278 -515 22 -41
98 -190 170 -330 71 -140 139 -265 150 -277 22 -25 56 -29 87 -13 52 28 496
844 750 1380 526 1109 1035 2451 1480 3900 107 347 261 872 335 1140 141 510
220 809 339 1285 146 582 209 848 342 1445 107 485 115 522 130 595 7 39 32
158 54 265 22 107 45 220 51 250 6 30 28 145 50 255 54 267 122 642 160 870 6
33 15 65 20 70 5 6 85 15 177 22 92 6 259 19 372 28 113 8 296 22 407 30 326
22 344 25 370 51 l23 23 0 388 c0 228 4 394 10 403 7 11 29 15 87 15 70 -1 85
-4 148 -38 114 -60 109 -52 91 -144 -101 -507 -96 -1256 13 -2068 36 -262 45
-319 105 -655 37 -203 87 -426 101 -447 16 -24 55 -39 79 -30 37 14 49 56 57
200 63 1019 437 2027 1068 2874 556 748 1257 1353 2171 1875 25 14 113 60 197
102 83 42 171 89 195 106 24 17 64 45 89 64 77 55 389 186 618 260 562 181
1083 222 1499 119 l104 -25 26 20 c25 18 27 24 25 93 -3 125 -92 597 -178 949
-12 52 -26 120 -30 150 -4 30 -18 80 -30 110 -13 30 -28 75 -35 100 -16 61
-104 342 -147 470 -422 1242 -1096 2422 -1957 3427 -303 353 -560 613 -921
930 -396 346 -661 508 -964 589 -75 20 -127 26 -236 29 -77 2 -163 0 -191 -4z
m882 -2820 c55 -40 295 -288 386 -398 230 -278 396 -529 537 -817 79 -161 153
-342 149 -364 -2 -9 -55 -32 -139 -62 -195 -67 -300 -111 -499 -207 -389 -187
-693 -396 -952 -655 -76 -75 -140 -132 -144 -127 -3 6 -3 38 0 72 3 34 10 190
16 347 24 657 93 1241 196 1637 37 146 62 217 115 331 68 147 123 214 204 253
55 26 86 24 131 -10z"/>
<path d="M17675 22218 c-26 -15 -35 -26 -169 -203 -452 -597 -833 -1346 -1022
-2010 -71 -249 -78 -299 -46 -327 9 -8 59 -36 110 -61 281 -140 538 -399 718
-722 103 -183 174 -357 234 -570 86 -305 118 -516 145 -940 23 -364 44 -658
50 -701 3 -23 12 -115 20 -205 20 -228 42 -450 55 -539 6 -41 20 -145 31 -230
200 -1508 596 -2893 1286 -4499 149 -349 159 -367 192 -380 45 -19 74 2 170
123 586 737 982 1551 1110 2276 51 296 51 296 -48 474 -91 163 -276 530 -374
743 -436 942 -808 1982 -1103 3093 -34 125 -134 533 -159 645 -15 66 -36 158
-46 205 -27 116 -124 604 -144 715 -78 443 -119 714 -185 1215 -90 687 -191
1187 -285 1417 -85 210 -193 336 -369 431 -109 58 -141 68 -171 50z"/>
<path d="M5092 22113 c-7 -3 -20 -19 -30 -36 -15 -29 -17 -84 -17 -612 0 -594
5 -706 45 -1085 25 -224 42 -347 81 -550 57 -304 73 -356 115 -366 45 -11 70
5 123 76 105 141 392 379 548 456 109 53 219 124 328 210 44 35 116 91 160
126 94 75 145 138 145 179 0 49 -39 75 -184 120 -247 77 -485 209 -618 342
-83 83 -134 182 -209 407 -85 257 -123 319 -183 304 -38 -9 -46 -24 -54 -105
l-8 -74 -33 100 c-40 123 -87 312 -96 391 -13 104 -50 143 -113 117z"/>
<path d="M16333 18060 c-36 -15 -44 -44 -59 -228 -34 -427 -88 -849 -168
-1327 -36 -213 -135 -674 -165 -770 -5 -17 -22 -75 -37 -130 -58 -213 -144
-446 -231 -625 l-57 -115 3 -100 c1 -54 4 -102 6 -105 2 -3 8 -68 14 -145 6
-77 18 -201 26 -275 8 -74 19 -175 25 -225 14 -137 38 -331 50 -415 6 -41 20
-136 31 -210 177 -1206 431 -2104 747 -2638 74 -125 184 -272 251 -337 22 -21
41 -45 41 -52 0 -7 -32 -68 -71 -136 -463 -793 -949 -1893 -1303 -2947 -284
-849 -473 -1575 -647 -2492 -7 -38 -16 -68 -20 -68 -3 0 -56 33 -116 74 -340
231 -686 390 -938 432 -94 15 -118 16 -184 5 -125 -21 -202 -64 -267 -149 -25
-33 -34 -55 -34 -83 0 -37 9 -48 167 -206 857 -863 1569 -1909 1963 -2887 86
-213 105 -239 159 -217 31 14 47 42 55 106 42 311 210 1190 301 1572 8 35 22
91 30 125 33 146 169 692 196 793 660 2428 1516 4343 2596 5803 88 120 113
161 113 186 0 21 -62 155 -188 406 -625 1244 -1091 2520 -1356 3710 -57 259
-131 673 -151 845 -3 28 -10 79 -16 115 -33 225 -58 636 -59 970 -1 598 -36
983 -111 1212 -50 154 -102 242 -198 338 -94 94 -158 133 -285 174 -87 29 -82
28 -113 16z"/>
<path d="M93191 14999 c-147 -25 -163 -53 -241 -419 -61 -289 -192 -566 -395
-835 -268 -354 -650 -680 -990 -846 -152 -74 -265 -111 -435 -144 -156 -31
-211 -52 -237 -91 -17 -26 -18 -61 -21 -469 -2 -306 0 -452 8 -478 18 -63 48
-70 297 -75 l213 -4 3 -4526 3 -4527 22 -128 c79 -474 232 -808 491 -1079 l45
-48 1322 0 c727 0 1336 3 1353 6 63 13 66 29 65 304 -1 269 -12 361 -59 457
-32 64 -114 140 -203 190 -243 133 -358 288 -391 527 -8 54 -11 1391 -11 4451
l0 4373 293 4 c323 5 351 9 414 70 66 64 68 80 68 503 l0 380 -28 57 c-16 32
-41 67 -57 78 -65 46 -96 50 -401 50 l-289 0 -2 1033 c-3 1024 -3 1032 -24
1077 -25 54 -71 95 -122 110 -45 12 -614 12 -691 -1z"/>
<path d="M50755 14910 c-871 -76 -1564 -370 -2104 -894 -625 -608 -930 -1285
-967 -2151 -23 -551 140 -1047 446 -1356 216 -218 460 -310 784 -296 271 11
490 109 681 303 344 348 475 847 425 1619 -11 158 -24 291 -56 555 -23 194
-23 444 -1 542 64 276 238 470 489 547 109 33 260 46 384 32 245 -28 428 -127
575 -311 175 -221 260 -541 311 -1175 18 -218 18 -1302 0 -1555 -98 -1419
-316 -2111 -1015 -3230 -317 -508 -728 -1074 -1491 -2055 -511 -657 -729 -916
-1031 -1225 -127 -129 -265 -278 -307 -330 -148 -185 -241 -352 -278 -495 -19
-76 -20 -109 -20 -1092 l0 -1013 3223 0 c2118 0 3246 4 3292 11 106 15 149 40
178 102 99 211 303 1257 502 2562 35 237 85 556 111 710 29 177 44 299 42 332
-6 65 -38 109 -103 142 -88 44 -141 53 -345 58 -275 7 -403 -16 -485 -88 -73
-65 -107 -147 -160 -397 -63 -298 -138 -527 -217 -661 -74 -126 -204 -224
-332 -251 -35 -7 -706 -9 -2098 -8 l-2046 3 130 145 c176 195 605 622 863 860
386 355 761 679 1355 1170 862 712 1310 1109 1771 1569 342 343 528 562 730
863 165 245 356 599 474 878 469 1112 473 2475 11 3509 -323 724 -921 1353
-1616 1702 -371 186 -748 297 -1200 355 -146 18 -746 28 -905 14z"/>
<path d="M38824 14860 c-141 -15 -231 -79 -264 -187 -35 -113 -43 -222 -37
-488 3 -142 11 -267 17 -290 19 -66 96 -130 250 -209 248 -128 333 -192 367
-276 17 -43 18 -272 21 -5245 2 -5148 2 -5201 -18 -5278 -52 -207 -185 -362
-413 -482 -111 -59 -177 -118 -208 -188 -24 -51 -24 -56 -24 -392 0 -331 1
-341 22 -381 28 -53 73 -91 123 -104 28 -7 719 -10 2262 -7 2030 2 2238 4
2393 20 707 73 1214 206 1687 443 599 300 1035 743 1338 1359 256 520 390
1060 452 1830 16 201 16 831 0 1015 -71 810 -271 1387 -636 1840 -347 430
-934 815 -1706 1119 -85 34 -168 68 -185 75 l-30 14 45 11 c275 72 609 215
858 367 387 237 740 571 975 922 92 137 221 393 272 542 105 304 145 542 152
908 9 458 -41 799 -171 1164 -146 411 -353 736 -670 1053 -495 494 -1108 749
-2011 836 -140 14 -4742 22 -4861 9z m3975 -955 c211 -47 368 -156 477 -330
177 -286 245 -852 230 -1920 -10 -703 -31 -1119 -66 -1343 -69 -431 -265 -680
-608 -774 -68 -19 -112 -22 -379 -26 l-303 -4 0 2212 0 2213 288 -6 c213 -4
306 -10 361 -22z m71 -5369 c268 -64 457 -257 511 -520 59 -293 87 -1015 96
-2511 7 -1115 -8 -1831 -47 -2250 -23 -238 -64 -405 -136 -553 -108 -220 -276
-325 -614 -381 -106 -18 -385 -41 -497 -41 l-33 0 0 3141 0 3141 323 -4 c265
-3 335 -7 397 -22z"/>
<path d="M55714 14860 c-122 -13 -204 -63 -244 -146 -49 -106 -67 -324 -51
-621 15 -272 17 -276 269 -408 175 -91 302 -173 329 -211 12 -16 29 -54 39
-84 18 -53 19 -213 22 -5200 2 -3466 -1 -5170 -8 -5223 -30 -236 -158 -409
-403 -547 -152 -86 -189 -118 -226 -192 l-31 -61 0 -336 c0 -333 0 -337 24
-387 25 -53 58 -83 115 -102 45 -16 4200 -17 4454 -2 1957 119 3088 948 3516
2580 132 503 188 1041 178 1702 -7 444 -31 685 -102 1016 -101 470 -287 883
-540 1197 -77 96 -251 271 -364 366 -366 307 -881 586 -1536 834 l-20 7 20 8
c11 4 92 31 180 59 377 120 730 309 1040 557 130 103 392 363 489 484 405 506
596 1117 573 1830 -23 680 -211 1243 -578 1730 -495 656 -1185 1020 -2134
1125 -77 9 -250 20 -385 25 -290 11 -4523 11 -4626 0z m3976 -955 c338 -75
528 -290 619 -700 63 -284 82 -535 88 -1156 7 -688 -14 -1368 -52 -1670 -50
-397 -197 -650 -450 -775 -161 -79 -206 -86 -552 -92 l-303 -4 0 2212 0 2213
288 -6 c214 -4 306 -10 362 -22z m85 -5373 c106 -27 166 -54 240 -107 147
-105 237 -257 270 -456 56 -346 90 -1412 89 -2809 -1 -1104 -23 -1782 -69
-2068 -57 -359 -180 -571 -388 -672 -159 -77 -393 -120 -729 -135 l-148 -7 0
3142 0 3142 328 -5 c289 -4 336 -6 407 -25z"/>
<path d="M68437 14860 c-51 -10 -87 -37 -117 -91 -24 -44 -25 -45 -32 -419 -5
-227 -4 -398 2 -434 12 -75 36 -101 190 -206 177 -120 258 -209 329 -361 22
-46 49 -120 60 -164 11 -44 495 -2616 1075 -5715 580 -3099 1071 -5711 1091
-5805 57 -273 91 -382 139 -433 49 -54 9 -52 936 -52 951 0 916 -2 945 62 8
18 73 339 144 713 72 374 572 2995 1111 5825 539 2830 996 5215 1015 5300 45
203 87 333 126 395 40 64 127 147 245 235 115 86 142 120 154 196 13 77 12
709 0 797 -13 88 -33 125 -78 145 -34 16 -127 17 -1087 17 -993 0 -1053 -1
-1097 -18 -55 -21 -83 -55 -98 -118 -6 -24 -15 -195 -20 -379 l-9 -335 25 -43
c30 -51 114 -119 209 -169 239 -124 368 -257 411 -422 36 -144 60 -6 -606
-3528 -338 -1789 -617 -3253 -620 -3253 -3 0 -244 1396 -535 3103 -291 1706
-543 3188 -561 3292 -37 210 -42 339 -20 445 36 171 144 305 325 404 94 52
135 88 160 140 21 42 22 60 24 372 2 321 1 330 -21 385 -28 70 -68 109 -124
120 -53 10 -3638 10 -3691 -1z"/>
<path d="M30490 14030 c-603 -46 -1167 -193 -1690 -442 -1394 -664 -2395
-1994 -2953 -3928 -101 -349 -112 -413 -79 -443 9 -8 73 -34 142 -57 285 -95
537 -249 759 -464 123 -120 200 -214 293 -356 205 -314 339 -726 378 -1163 11
-126 13 -561 4 -656 l-7 -62 -126 -107 c-378 -320 -796 -802 -1153 -1332 -758
-1123 -1332 -2536 -1672 -4115 -8 -38 -25 -116 -37 -173 l-22 -103 20 -27 c13
-17 31 -28 52 -30 38 -4 49 7 176 169 388 494 1007 1142 1564 1638 1277 1137
2572 1854 3805 2106 173 36 394 67 591 85 130 12 623 12 745 0 591 -56 1087
-197 1627 -461 99 -49 193 -89 207 -89 14 0 35 10 47 23 21 22 21 22 16 517
-5 481 -27 1107 -46 1320 -6 58 -13 150 -16 205 -13 203 -62 645 -98 876 -44
274 -122 575 -162 619 -31 34 -446 118 -820 165 -760 96 -1453 77 -1992 -55
-289 -70 -580 -191 -784 -324 -54 -36 -99 -62 -99 -57 0 5 7 75 16 157 22 211
14 722 -15 949 -82 634 -258 1128 -558 1563 -35 52 -62 99 -60 106 16 42 264
332 404 472 437 439 874 696 1363 801 130 28 487 26 625 -4 358 -77 698 -263
1028 -562 55 -50 74 -61 101 -61 38 0 63 19 72 54 10 42 -30 685 -56 891 -5
44 -14 121 -20 170 -77 716 -244 1384 -446 1788 -77 153 -201 334 -247 358
-63 34 -617 59 -877 39z"/>
<path d="M78935 12890 c-362 -37 -684 -129 -985 -281 -490 -247 -892 -623
-1255 -1174 -131 -199 -178 -280 -279 -482 -311 -623 -519 -1369 -635 -2283
-118 -920 -130 -2131 -30 -3055 87 -818 250 -1505 494 -2085 200 -475 441
-857 788 -1248 412 -465 936 -808 1468 -961 128 -37 319 -76 459 -93 136 -17
553 -17 690 0 679 84 1237 378 1673 881 431 496 724 1108 832 1736 43 247 50
340 50 620 0 231 -3 279 -18 334 -36 127 -74 174 -169 209 -104 38 -190 47
-473 47 -269 0 -357 -8 -472 -40 -137 -40 -164 -129 -183 -609 -12 -289 -31
-486 -65 -671 -121 -650 -421 -1121 -832 -1306 -142 -64 -388 -108 -526 -94
-130 14 -268 64 -357 129 -64 48 -169 159 -219 230 -128 186 -208 425 -252
751 -9 67 -13 562 -16 1938 l-4 1847 1796 0 1795 0 0 574 c0 861 -28 1290
-121 1856 -197 1200 -654 2126 -1329 2692 -328 275 -723 452 -1155 519 -149
24 -521 34 -670 19z m390 -1065 c168 -44 278 -166 339 -377 13 -46 29 -123 35
-173 7 -62 11 -546 11 -1547 l0 -1458 -545 0 -546 0 4 1483 c3 1618 1 1559 61
1735 60 178 174 295 327 336 73 20 240 20 314 1z"/>
<path d="M87950 12885 c-440 -53 -854 -234 -1240 -541 -125 -100 -451 -430
-567 -576 l-101 -126 -5 501 c-3 338 -8 514 -16 538 -14 44 -47 76 -92 89 -21
6 -549 10 -1422 10 -1344 0 -1389 -1 -1425 -19 -50 -26 -78 -58 -97 -110 -12
-35 -15 -99 -15 -341 0 -388 5 -403 164 -500 141 -85 219 -184 246 -313 7 -37
9 -1300 7 -4362 -3 -4040 -4 -4315 -20 -4395 -10 -47 -29 -108 -42 -136 -32
-65 -113 -154 -209 -229 -85 -66 -128 -123 -153 -200 -21 -65 -30 -457 -14
-605 15 -139 36 -184 98 -213 l48 -22 1545 -3 c1376 -2 1553 -1 1616 13 90 20
156 62 192 124 l27 46 0 330 0 330 -26 62 c-29 69 -59 109 -107 144 -126 91
-162 122 -204 176 -25 34 -57 88 -70 120 l-23 58 -3 3991 -2 3991 57 49 c308
265 573 359 828 294 170 -43 273 -155 331 -360 18 -63 19 -214 24 -4250 5
-3929 7 -4191 23 -4280 58 -317 174 -548 386 -773 l64 -67 1196 2 1196 3 45
25 c99 56 115 123 115 485 -1 234 -3 269 -23 347 -34 135 -67 191 -167 282
-94 86 -125 128 -159 215 l-21 56 -5 4220 c-5 3953 -7 4227 -23 4334 -63 411
-187 723 -398 1004 -86 114 -221 249 -319 319 -313 222 -774 320 -1240 263z"/>
<path d="M107590 12885 c-175 -35 -334 -121 -474 -254 -208 -200 -379 -593
-616 -1422 -94 -330 -173 -569 -209 -634 -15 -28 -16 36 -21 975 -5 920 -7
1010 -23 1065 -21 69 -55 118 -100 143 -30 16 -108 17 -1232 17 -930 0 -1209
-3 -1241 -12 -91 -28 -136 -79 -161 -182 -31 -131 -25 -590 10 -673 18 -42 61
-80 191 -167 112 -76 154 -118 190 -196 54 -116 51 180 51 -4480 l0 -4320 -23
-63 c-43 -119 -96 -182 -228 -268 -76 -51 -86 -61 -116 -122 l-33 -67 0 -350
c0 -335 1 -352 21 -395 27 -57 67 -97 124 -124 l45 -21 1615 -3 c1160 -2 1630
1 1669 9 31 6 64 21 77 34 44 44 49 88 49 430 0 312 -1 322 -24 384 -13 35
-32 78 -42 95 -34 56 -117 131 -201 181 -140 83 -209 158 -257 282 l-26 68 -3
3470 c-2 2463 0 3508 8 3600 19 225 57 370 125 470 55 82 115 118 206 123 60
4 74 1 114 -23 62 -36 119 -116 205 -288 87 -171 137 -244 229 -329 125 -116
260 -164 436 -155 440 23 686 377 767 1102 17 159 17 694 0 835 -67 543 -255
965 -509 1147 -159 113 -389 159 -593 118z"/>
<path d="M112172 12884 c-823 -89 -1496 -496 -2055 -1240 -624 -832 -988
-1973 -1111 -3494 -32 -391 -40 -619 -40 -1155 0 -666 17 -1002 80 -1534 137
-1161 462 -2114 954 -2793 291 -401 649 -756 991 -980 385 -253 795 -404 1249
-460 136 -17 553 -17 690 0 541 68 983 256 1376 588 319 269 617 668 834 1117
168 348 266 682 322 1097 18 134 22 214 22 430 0 243 -2 272 -22 345 -55 199
-150 241 -567 252 -307 8 -528 -18 -607 -70 -76 -50 -103 -176 -118 -542 -16
-391 -37 -582 -90 -821 -134 -604 -437 -1042 -834 -1206 -216 -89 -495 -109
-671 -48 -208 72 -368 227 -490 475 -100 203 -151 411 -175 709 -6 81 -10 791
-10 1902 l0 1774 1795 0 1795 0 0 543 c0 728 -17 1084 -76 1557 -141 1143
-478 2024 -1019 2665 -405 480 -905 776 -1465 869 -234 38 -521 46 -758 20z
m433 -1059 c212 -55 340 -251 375 -577 6 -63 10 -608 10 -1538 l0 -1440 -545
0 -545 0 0 1429 c0 908 4 1467 10 1532 34 334 162 534 381 593 73 20 239 20
314 1z"/>
<path d="M117935 12894 c-413 -44 -796 -248 -1090 -582 -345 -390 -527 -898
-585 -1632 -14 -177 -14 -649 0 -820 74 -887 296 -1577 892 -2770 242 -485
364 -714 708 -1326 851 -1511 1104 -2042 1207 -2533 34 -163 39 -400 9 -496
-35 -116 -87 -184 -175 -227 -40 -20 -61 -23 -166 -23 -107 0 -127 3 -183 26
-198 84 -378 254 -572 539 -119 176 -218 354 -396 715 -90 182 -185 362 -212
400 -87 126 -167 167 -361 186 -222 23 -487 -17 -578 -87 -73 -56 -85 -106
-62 -271 28 -206 422 -2487 440 -2548 59 -200 137 -240 459 -239 282 1 370 25
413 112 26 50 50 144 67 256 14 92 32 132 72 156 66 42 172 -1 443 -180 270
-178 500 -281 732 -327 130 -26 366 -23 500 5 297 64 540 200 776 436 447 447
684 1033 759 1876 16 181 16 769 -1 980 -56 734 -185 1313 -426 1911 -110 272
-234 544 -411 899 -267 537 -465 902 -927 1705 -356 618 -524 925 -711 1295
-257 509 -364 773 -396 975 -28 176 55 364 192 437 59 31 178 31 259 0 230
-90 436 -307 792 -833 148 -220 217 -334 327 -539 146 -273 220 -378 307 -437
87 -59 179 -76 408 -77 183 -1 206 1 275 22 57 19 84 34 116 66 58 57 69 101
55 228 -15 135 -455 2458 -479 2528 -46 133 -80 168 -180 189 -106 22 -437 10
-530 -20 -79 -26 -128 -100 -157 -239 -27 -127 -56 -162 -143 -168 -75 -5
-156 26 -369 141 -270 147 -434 214 -643 263 -82 20 -139 26 -260 29 -85 1
-173 1 -195 -1z"/>
<path d="M95544 12766 c-104 -25 -143 -63 -171 -166 -15 -55 -17 -104 -15
-325 2 -276 14 -425 39 -487 26 -64 102 -122 269 -204 l153 -75 4 -4067 c3
-3008 7 -4101 15 -4197 54 -592 135 -946 285 -1239 200 -393 616 -686 1086
-767 390 -67 732 -12 1144 184 360 171 799 481 1220 862 59 53 112 93 117 90
6 -4 10 -128 10 -333 1 -332 7 -434 36 -532 22 -75 79 -132 159 -157 57 -17
127 -18 1425 -18 1253 0 1368 1 1402 17 20 9 43 27 52 40 24 36 35 143 42 389
6 251 -4 344 -51 446 -45 99 -96 156 -204 227 -54 36 -111 80 -125 97 -38 45
-72 115 -85 177 -8 39 -11 1360 -11 4940 0 3218 -4 4911 -10 4956 -14 91 -35
127 -85 143 -52 15 -2811 18 -2866 3 -56 -16 -102 -51 -129 -100 -22 -40 -25
-59 -28 -175 -6 -198 13 -574 30 -615 23 -55 61 -93 160 -161 51 -35 113 -84
138 -109 52 -54 106 -150 126 -224 12 -43 14 -691 14 -3984 l0 -3933 -41 -60
c-140 -207 -354 -319 -608 -319 -146 0 -257 45 -345 141 -102 110 -167 274
-209 524 l-22 130 -5 4380 c-4 3455 -8 4388 -18 4416 -15 44 -39 67 -89 85
-53 19 -2730 19 -2809 0z"/>
</g>
</svg>
